<?xml version="1.0" encoding="utf-8"?>
<!-- Generator: Adobe Illustrator 24.0.1, SVG Export Plug-In . SVG Version: 6.00 Build 0)  -->
<svg version="1.1" id="Layer_1" xmlns="http://www.w3.org/2000/svg" xmlns:xlink="http://www.w3.org/1999/xlink" x="0px" y="0px"
	 viewBox="0 0 344.63 344.63" style="enable-background:new 0 0 344.63 344.63;" xml:space="preserve">
<style type="text/css">
	.st0{fill:#FFFFFF;}
	.st1{enable-background:new    ;}
	.st2{fill:#0B3F77;}
</style>
<g>
	<circle class="st0" cx="172.31" cy="172.31" r="172.31"/>
	<g class="st1">
		<path class="st2" d="M76.29,258.7c-1.21-1.21-1.81-2.54-1.81-4.03c0-1.11,0.1-1.95,0.28-2.5L139.52,74
			c1.85-5.37,5.56-8.06,11.12-8.06h43.36c5.56,0,9.26,2.69,11.12,8.06l64.76,178.16c0.18,0.56,0.28,1.39,0.28,2.5
			c0,1.49-0.6,2.82-1.81,4.03c-1.21,1.21-2.55,1.81-4.03,1.81h-36.13c-4.44,0-7.6-2.04-9.45-6.11l-10.01-26.96h-72.82l-10.01,26.96
			c-1.85,4.08-5,6.11-9.45,6.11H80.32C78.83,260.51,77.49,259.91,76.29,258.7z M147.58,185.74h49.48l-24.74-70.88L147.58,185.74z"/>
	</g>
</g>
</svg>
