<?xml version="1.0" encoding="utf-8"?>
<!-- Generator: Adobe Illustrator 23.0.3, SVG Export Plug-In . SVG Version: 6.00 Build 0)  -->
<svg version="1.1" id="Layer_1" xmlns="http://www.w3.org/2000/svg" xmlns:xlink="http://www.w3.org/1999/xlink" x="0px" y="0px"
	 viewBox="0 0 563.1 196.1" style="enable-background:new 0 0 563.1 196.1;" xml:space="preserve">
<style type="text/css">
	.st0{fill:#0B3F77;}
</style>
<path class="st0" d="M0.7,71.2C0.2,70.8,0,70.3,0,69.7c0-0.4,0-0.7,0.1-0.9L24,3c0.7-2,2-3,4.1-3h16c2,0,3.4,1,4.1,3l23.9,65.8
	c0.1,0.2,0.1,0.5,0.1,0.9c0,0.6-0.2,1-0.7,1.5s-0.9,0.7-1.5,0.7H56.8c-1.6,0-2.8-0.8-3.5-2.3l-3.7-10H22.7l-3.7,10
	c-0.7,1.5-1.9,2.3-3.5,2.3H2.2C1.6,71.9,1.1,71.7,0.7,71.2z M27,44.3h18.3l-9.1-26.2L27,44.3z"/>
<path class="st0" d="M89.1,71.2c-0.5-0.4-0.9-1.1-1.2-1.9L73.1,21.8l-0.2-0.9c0-0.7,0.2-1.2,0.7-1.7s1-0.7,1.6-0.7h11.2
	c0.8,0,1.5,0.2,2.1,0.7s0.9,0.9,1,1.5L98,49.1l8.9-28.2c0.1-0.6,0.5-1.2,1-1.6c0.6-0.5,1.3-0.7,2.2-0.7h7.1c0.9,0,1.6,0.2,2.2,0.7
	s0.9,1,1.1,1.6l8.9,28.2l8.3-28.4c0.2-0.5,0.6-1,1.1-1.5c0.5-0.4,1.2-0.7,2-0.7H152c0.7,0,1.2,0.2,1.7,0.7s0.7,1,0.7,1.7
	c0,0.3,0,0.6-0.1,0.9l-14.9,47.5c-0.5,1.7-1.6,2.6-3.3,2.6h-9.8c-1.7,0-2.9-0.8-3.5-2.6L113.7,42l-9.2,27.3
	c-0.5,1.7-1.6,2.6-3.4,2.6h-9.8C90.3,71.9,89.6,71.7,89.1,71.2z"/>
<path class="st0" d="M167,70.8c-3-1.4-5.3-3.3-7-5.8c-1.7-2.5-2.5-5.2-2.5-8.1c0-4.7,1.9-8.4,5.8-11.3c3.9-2.9,9.2-4.9,16-6l12.7-2
	v-1.2c0-2.5-0.5-4.4-1.5-5.5c-1-1.2-2.8-1.8-5.2-1.8c-1.4,0-2.5,0.2-3.4,0.7s-2,1.2-3.1,2.2c-0.9,0.8-1.7,1.3-2.4,1.6
	c-0.3,0.5-0.6,0.7-1,0.7h-11.9c-0.7,0-1.2-0.2-1.7-0.7c-0.4-0.4-0.6-1-0.6-1.6c0.1-1.9,1-3.9,2.8-6.2s4.5-4.3,8.1-5.9
	s8.1-2.5,13.4-2.5c8.5,0,14.8,1.9,18.9,5.6c4.1,3.7,6.2,8.8,6.2,15.1v31.1c0,0.7-0.2,1.3-0.7,1.8c-0.5,0.5-1.1,0.8-1.9,0.8h-12.6
	c-0.7,0-1.3-0.3-1.8-0.8c-0.5-0.5-0.8-1.1-0.8-1.8v-3.6c-1.5,2.1-3.6,3.8-6.3,5.2s-5.9,2-9.6,2C173.3,72.9,170,72.2,167,70.8z
	 M189.4,57.8c1.9-2,2.8-4.9,2.8-8.6V48l-8.5,1.4c-5.8,1.1-8.6,3.2-8.6,6.2c0,1.6,0.7,2.8,2,3.8s3,1.4,5,1.4
	C185.1,60.8,187.5,59.8,189.4,57.8z"/>
<path class="st0" d="M222.5,71.1c-0.5-0.5-0.8-1.1-0.8-1.8V21.1c0-0.8,0.2-1.4,0.7-1.9s1.1-0.8,1.9-0.8h12.5c0.8,0,1.4,0.3,1.9,0.8
	s0.8,1.1,0.8,1.9V25c1.9-2.1,4.2-3.8,6.7-4.9c2.6-1.1,5.4-1.7,8.6-1.7h4.6c0.8,0,1.4,0.2,1.9,0.7s0.7,1.1,0.7,1.9v11.2
	c0,0.7-0.2,1.3-0.7,1.8c-0.5,0.5-1.1,0.8-1.9,0.8H249c-2.7,0-4.8,0.8-6.3,2.3s-2.2,3.6-2.2,6.4v25.9c0,0.8-0.3,1.4-0.8,1.8
	c-0.5,0.5-1.1,0.7-1.9,0.7h-13.6C223.6,71.9,223,71.6,222.5,71.1z"/>
<path class="st0" d="M274,66.2c-4.8-4.5-7.3-11-7.4-19.6v-3.2c0.3-8.2,2.8-14.5,7.6-19.1s11.3-6.9,19.4-6.9c5.9,0,10.9,1.2,14.9,3.5
	s7.1,5.6,9.1,9.8c2,4.1,3,8.9,3,14.1v2.6c0,0.8-0.3,1.4-0.8,1.9c-0.5,0.5-1.1,0.8-1.9,0.8h-32.5v0.6c0.1,3.1,0.8,5.6,2.2,7.4
	c1.4,1.9,3.3,2.8,5.9,2.8c1.6,0,3-0.3,4-1c1-0.7,1.9-1.5,2.8-2.5c0.6-0.7,1.1-1.1,1.5-1.3s1-0.3,1.8-0.3H317c0.6,0,1.1,0.2,1.6,0.6
	c0.4,0.4,0.7,0.8,0.7,1.4c0,1.8-1,3.9-3,6.3c-2,2.4-5,4.4-8.8,6.2s-8.4,2.6-13.7,2.6C285.3,72.9,278.8,70.7,274,66.2z M301.8,39.6
	v-0.2c0-3.3-0.7-5.8-2.2-7.6s-3.5-2.7-6.1-2.7s-4.6,0.9-6,2.7c-1.4,1.8-2.1,4.4-2.1,7.6v0.2H301.8z"/>
<path class="st0" d="M330.7,71.1c-0.5-0.5-0.8-1.1-0.8-1.8V21c0-0.8,0.3-1.4,0.8-1.9c0.5-0.5,1.1-0.7,1.8-0.7h12.6
	c0.8,0,1.4,0.2,1.9,0.7s0.7,1.1,0.7,1.9v3.9c1.9-2.3,4.2-4.1,7.1-5.4s6.2-2,10-2c3.9,0,7.4,0.9,10.4,2.7c3,1.8,5.4,4.4,7.2,7.9
	s2.6,7.7,2.6,12.6v28.7c0,0.7-0.2,1.3-0.7,1.8c-0.5,0.5-1.1,0.8-1.9,0.8h-13.7c-0.8,0-1.4-0.2-1.9-0.7c-0.5-0.5-0.8-1.1-0.8-1.8v-28
	c0-3.1-0.7-5.4-2.2-7.1c-1.5-1.6-3.6-2.5-6.4-2.5c-2.7,0-4.9,0.8-6.5,2.5c-1.6,1.7-2.4,4-2.4,7v28c0,0.7-0.2,1.3-0.7,1.8
	c-0.5,0.5-1.1,0.8-1.9,0.8h-13.7C331.8,71.9,331.2,71.6,330.7,71.1z"/>
<path class="st0" d="M401.6,66.2c-4.8-4.5-7.3-11-7.4-19.6v-3.2c0.3-8.2,2.8-14.5,7.6-19.1s11.3-6.9,19.4-6.9
	c5.9,0,10.9,1.2,14.9,3.5s7.1,5.6,9.1,9.8c2,4.1,3,8.9,3,14.1v2.6c0,0.8-0.3,1.4-0.8,1.9c-0.5,0.5-1.1,0.8-1.9,0.8h-32.5v0.6
	c0.1,3.1,0.8,5.6,2.2,7.4c1.4,1.9,3.3,2.8,5.9,2.8c1.6,0,3-0.3,4-1c1-0.7,1.9-1.5,2.8-2.5c0.6-0.7,1.1-1.1,1.5-1.3s1-0.3,1.8-0.3
	h13.5c0.6,0,1.1,0.2,1.6,0.6c0.4,0.4,0.7,0.8,0.7,1.4c0,1.8-1,3.9-3,6.3c-2,2.4-5,4.4-8.8,6.2s-8.4,2.6-13.7,2.6
	C413,72.9,406.4,70.7,401.6,66.2z M429.4,39.6v-0.2c0-3.3-0.7-5.8-2.2-7.6s-3.5-2.7-6.1-2.7s-4.6,0.9-6,2.7
	c-1.4,1.8-2.1,4.4-2.1,7.6v0.2H429.4z"/>
<path class="st0" d="M465.9,70.6c-3.8-1.6-6.6-3.5-8.4-5.7c-1.8-2.2-2.7-4.2-2.7-6c0-0.7,0.3-1.2,0.8-1.7c0.5-0.4,1.1-0.7,1.7-0.7
	h12.4c0.4,0,0.8,0.1,1,0.4c1.2,0.8,1.8,1.2,2,1.3c1.3,1,2.5,1.7,3.6,2.2c1.1,0.5,2.5,0.8,4.1,0.8c1.9,0,3.4-0.4,4.6-1.1
	s1.8-1.7,1.8-3c0-1.1-0.3-2-1-2.7c-0.6-0.7-1.9-1.3-3.7-2s-4.6-1.3-8.3-2C462,48.1,456,42.7,456,34.1c0-2.8,0.9-5.5,2.7-8.1
	s4.5-4.6,8-6.2s7.8-2.4,12.7-2.4c5,0,9.3,0.8,13,2.3s6.5,3.4,8.4,5.6c1.9,2.2,2.9,4.1,2.9,5.9c0,0.6-0.2,1.2-0.7,1.6
	c-0.5,0.5-1,0.7-1.6,0.7h-11.3c-0.6,0-1.1-0.1-1.4-0.4c-0.8-0.4-1.6-0.9-2.5-1.5c-1.2-0.8-2.3-1.5-3.2-1.9c-0.9-0.4-2.1-0.7-3.5-0.7
	c-1.7,0-3,0.4-4,1.1c-1,0.8-1.4,1.7-1.4,2.9c0,1,0.3,1.9,0.9,2.5s1.8,1.3,3.6,1.9c1.8,0.6,4.6,1.3,8.3,2c6.7,1.2,11.6,3.2,14.6,6.2
	c3,3,4.6,6.5,4.6,10.4c0,5.1-2.3,9.2-6.8,12.3c-4.5,3.1-10.9,4.6-19.1,4.6C474.4,72.9,469.7,72.1,465.9,70.6z"/>
<path class="st0" d="M523.1,70.6c-3.8-1.6-6.6-3.5-8.4-5.7c-1.8-2.2-2.7-4.2-2.7-6c0-0.7,0.3-1.2,0.8-1.7s1.1-0.7,1.7-0.7h12.4
	c0.4,0,0.8,0.1,1,0.4c1.2,0.8,1.8,1.2,2,1.3c1.3,1,2.5,1.7,3.7,2.2c1.1,0.5,2.5,0.8,4.1,0.8c1.8,0,3.4-0.4,4.6-1.1s1.8-1.7,1.8-3
	c0-1.1-0.3-2-1-2.7c-0.7-0.7-1.9-1.3-3.7-2s-4.6-1.3-8.3-2c-11.8-2.4-17.8-7.9-17.8-16.4c0-2.8,0.9-5.5,2.7-8.1s4.5-4.6,8-6.2
	s7.8-2.4,12.7-2.4c5,0,9.3,0.8,13,2.3s6.5,3.4,8.4,5.6s2.9,4.1,2.9,5.9c0,0.6-0.2,1.2-0.7,1.6c-0.5,0.5-1,0.7-1.6,0.7h-11.3
	c-0.6,0-1.1-0.1-1.4-0.4c-0.8-0.4-1.6-0.9-2.5-1.5c-1.2-0.8-2.3-1.5-3.2-1.9c-0.9-0.4-2.1-0.7-3.5-0.7c-1.7,0-3,0.4-4,1.1
	c-1,0.8-1.4,1.7-1.4,2.9c0,1,0.3,1.9,0.9,2.5s1.8,1.3,3.6,1.9c1.8,0.6,4.6,1.3,8.3,2c6.7,1.2,11.6,3.2,14.6,6.2
	c3,3,4.6,6.5,4.6,10.4c0,5.1-2.3,9.2-6.8,12.3c-4.5,3.1-10.9,4.6-19.2,4.6C531.5,72.9,526.8,72.1,523.1,70.6z"/>
<path class="st0" d="M10.8,190.1c-4.6-4-7.1-9.7-7.6-17.1c-0.1-0.9-0.1-2.4-0.1-4.6s0-3.7,0.1-4.6c0.4-7.2,3-12.9,7.8-17
	s11.3-6.1,19.7-6.1c8.4,0,14.9,2,19.7,6.1c4.8,4.1,7.3,9.7,7.8,17c0.1,1.8,0.2,3.3,0.2,4.6c0,1.3-0.1,2.8-0.2,4.6
	c-0.4,7.4-2.9,13.1-7.5,17.1c-4.6,4-11.2,6-19.9,6C22.1,196.1,15.4,194.1,10.8,190.1z M37,180.6c1.4-1.8,2.2-4.4,2.4-8.1
	c0.1-0.7,0.1-2.1,0.1-4.1s0-3.4-0.1-4.1c-0.2-3.6-1-6.2-2.4-8s-3.5-2.7-6.3-2.7c-2.8,0-4.9,0.9-6.3,2.7c-1.4,1.8-2.2,4.4-2.4,8
	l-0.1,4.1l0.1,4.1c0.2,3.6,1,6.3,2.4,8.1c1.4,1.8,3.5,2.6,6.3,2.6C33.5,183.2,35.6,182.3,37,180.6z"/>
<path class="st0" d="M68.8,194.3c-0.5-0.5-0.8-1.1-0.8-1.8v-48.3c0-0.8,0.3-1.4,0.8-1.9c0.5-0.5,1.1-0.7,1.8-0.7h12.6
	c0.8,0,1.4,0.2,1.8,0.7c0.5,0.5,0.7,1.1,0.7,1.9v3.9c1.8-2.3,4.2-4.1,7.1-5.4c2.9-1.4,6.2-2.1,10-2.1c3.9,0,7.4,0.9,10.4,2.7
	c3.1,1.8,5.4,4.4,7.2,7.9s2.6,7.7,2.6,12.6v28.6c0,0.7-0.2,1.3-0.7,1.8c-0.5,0.5-1.1,0.8-1.8,0.8H107c-0.8,0-1.4-0.2-1.9-0.7
	s-0.8-1.1-0.8-1.9v-28c0-3.1-0.7-5.4-2.2-7.1s-3.6-2.5-6.4-2.5c-2.7,0-4.9,0.8-6.5,2.5c-1.6,1.7-2.4,4-2.4,7v28
	c0,0.7-0.2,1.3-0.7,1.8c-0.5,0.5-1.1,0.8-1.8,0.8H70.7C70,195.1,69.4,194.9,68.8,194.3z"/>
<path class="st0" d="M160.3,174.7v-19h-8.1c-0.7,0-1.3-0.3-1.8-0.8c-0.5-0.5-0.8-1.1-0.8-1.8v-8.8c0-0.8,0.3-1.4,0.8-1.9
	c0.5-0.5,1.1-0.7,1.8-0.7h8.1v-16.9c0-0.8,0.3-1.4,0.8-1.8c0.5-0.5,1.1-0.7,1.8-0.7h12.6c0.8,0,1.4,0.2,1.9,0.7
	c0.5,0.5,0.7,1.1,0.7,1.8v16.9h12.8c0.8,0,1.4,0.2,1.9,0.7s0.8,1.1,0.8,1.9v8.8c0,0.8-0.3,1.4-0.8,1.9c-0.5,0.5-1.1,0.7-1.9,0.7
	h-12.8v17.5c0,2.4,0.4,4.2,1.3,5.4s2.3,1.9,4.3,1.9h8.1c0.8,0,1.4,0.3,1.9,0.8c0.5,0.5,0.7,1.1,0.7,1.9v9.4c0,0.7-0.2,1.3-0.7,1.8
	c-0.5,0.5-1.1,0.8-1.9,0.8h-9.8C167.6,195.1,160.3,188.3,160.3,174.7z"/>
<path class="st0" d="M203.4,133.6c-0.5-0.5-0.7-1.1-0.7-1.9v-9.6c0-0.8,0.3-1.4,0.8-1.9c0.5-0.5,1.1-0.8,1.8-0.8h12.8
	c0.8,0,1.4,0.3,1.9,0.8c0.5,0.5,0.8,1.2,0.8,1.9v9.6c0,0.8-0.3,1.4-0.8,1.9c-0.5,0.5-1.1,0.8-1.9,0.8h-12.8
	C204.5,134.3,203.9,134.1,203.4,133.6z M203.5,194.3c-0.5-0.5-0.8-1.1-0.8-1.8v-48.3c0-0.8,0.3-1.4,0.8-1.9c0.5-0.5,1.1-0.7,1.8-0.7
	h12.8c0.8,0,1.4,0.2,1.9,0.7s0.8,1.1,0.8,1.9v48.3c0,0.8-0.3,1.4-0.8,1.9c-0.5,0.5-1.1,0.7-1.9,0.7h-12.8
	C204.6,195.1,204,194.9,203.5,194.3z"/>
<path class="st0" d="M233.2,194.3c-0.5-0.5-0.8-1.1-0.8-1.8v-48.3c0-0.8,0.3-1.4,0.8-1.9c0.5-0.5,1.1-0.7,1.8-0.7H247
	c0.8,0,1.4,0.2,1.9,0.7c0.5,0.5,0.7,1.1,0.7,1.9v3.5c1.6-2,3.8-3.7,6.4-5c2.6-1.4,5.5-2.1,8.8-2.1c7.5,0,12.7,2.9,15.5,8.8
	c1.6-2.6,3.9-4.7,6.9-6.4c2.9-1.6,6.1-2.5,9.5-2.5c5.6,0,10.2,1.9,13.7,5.7c3.5,3.8,5.3,9.5,5.3,17v29.2c0,0.7-0.2,1.3-0.7,1.8
	s-1.1,0.8-1.9,0.8h-12.6c-0.8,0-1.4-0.2-1.9-0.7c-0.5-0.5-0.8-1.1-0.8-1.9v-28.4c0-3.1-0.7-5.5-2-6.9c-1.3-1.5-3.1-2.2-5.4-2.2
	c-2.1,0-3.9,0.7-5.2,2.2c-1.3,1.5-2,3.8-2,6.9v28.4c0,0.7-0.2,1.3-0.7,1.8c-0.5,0.5-1.1,0.8-1.9,0.8h-12.6c-0.8,0-1.4-0.2-1.9-0.7
	c-0.5-0.5-0.8-1.1-0.8-1.9v-28.4c0-3.1-0.7-5.5-2-6.9c-1.4-1.5-3.1-2.2-5.3-2.2c-2.1,0-3.9,0.7-5.2,2.2c-1.4,1.5-2.1,3.8-2.1,6.8
	v28.6c0,0.7-0.2,1.3-0.7,1.8c-0.5,0.5-1.1,0.8-1.9,0.8h-12.9C234.4,195.1,233.8,194.9,233.2,194.3z"/>
<path class="st0" d="M332.1,189.4c-4.8-4.5-7.3-11-7.4-19.6v-3.2c0.3-8.1,2.8-14.5,7.6-19.1c4.8-4.6,11.3-6.9,19.4-6.9
	c5.9,0,10.9,1.2,14.9,3.5s7.1,5.6,9.1,9.8c2,4.1,3,8.9,3,14.1v2.6c0,0.8-0.3,1.4-0.8,1.9c-0.5,0.5-1.1,0.8-1.9,0.8h-32.5v0.6
	c0.1,3.1,0.8,5.6,2.2,7.4c1.4,1.9,3.3,2.8,5.9,2.8c1.6,0,3-0.3,4-1c1-0.6,1.9-1.5,2.8-2.5c0.6-0.7,1.1-1.1,1.5-1.3s1-0.3,1.8-0.3
	h13.5c0.6,0,1.1,0.2,1.6,0.6c0.4,0.4,0.7,0.8,0.7,1.4c0,1.8-1,3.9-3,6.3c-2,2.4-5,4.4-8.8,6.2s-8.4,2.6-13.7,2.6
	C343.5,196.1,336.9,193.9,332.1,189.4z M359.9,162.9v-0.2c0-3.3-0.7-5.8-2.2-7.6s-3.5-2.7-6.1-2.7s-4.6,0.9-6,2.7
	c-1.4,1.8-2.1,4.4-2.1,7.6v0.2H359.9z"/>
</svg>
